<svg xmlns="http://www.w3.org/2000/svg" viewBox="0 0 512 512">
  <defs>
    <linearGradient id="bg" x1="106" y1="62" x2="420" y2="454" gradientUnits="userSpaceOnUse">
      <stop offset="0" stop-color="#3b3028"/>
      <stop offset="0.55" stop-color="#2c241f"/>
      <stop offset="1" stop-color="#211d1a"/>
    </linearGradient>
    <linearGradient id="warm-node" x1="311" y1="111" x2="386" y2="198" gradientUnits="userSpaceOnUse">
      <stop offset="0" stop-color="#df8350"/>
      <stop offset="1" stop-color="#bd5834"/>
    </linearGradient>
    <linearGradient id="local-node" x1="310" y1="313" x2="390" y2="402" gradientUnits="userSpaceOnUse">
      <stop offset="0" stop-color="#7ab08b"/>
      <stop offset="1" stop-color="#4f8269"/>
    </linearGradient>
  </defs>
  <rect width="512" height="512" rx="112" fill="url(#bg)"/>
  <circle cx="172" cy="152" r="86" fill="#4a3a2f" opacity="0.42"/>
  <circle cx="392" cy="354" r="72" fill="#46372e" opacity="0.5"/>
  <path
    d="M349 154C320 126 279 114 239 123C160 141 111 221 129 300C148 380 228 429 307 411C323 407 338 400 352 390"
    fill="none"
    stroke="#f7efe4"
    stroke-width="48"
    stroke-linecap="round"
  />
  <path
    d="M349 155 256 256l94 101"
    fill="none"
    stroke="#ddc7aa"
    stroke-width="30"
    stroke-linecap="round"
    stroke-linejoin="round"
  />
  <circle cx="350" cy="155" r="42" fill="url(#warm-node)"/>
  <circle cx="256" cy="256" r="31" fill="#f7efe4"/>
  <circle cx="350" cy="357" r="42" fill="url(#local-node)"/>
  <circle cx="350" cy="155" r="14" fill="#f7efe4" opacity="0.95"/>
  <circle cx="350" cy="357" r="14" fill="#f7efe4" opacity="0.95"/>
</svg>
